# File created by Blade
# Date/Time:  Wed Apr 08 17:31:39 2015
# Frame Rate: 120.000 fps
#------------------------------------------------------
:FULLY-SPECIFIED
:DEGREES
993
root 2.518070 36.386032 -0.235614 -515.470294 -83.682104 542.308712
Spine -28.240685 0.763157 -4.619655
Head 8.414235 10.862122 5.967683
LeftShoulder -6.613426 12.111307 30.179167
LeftArm 12.379968 -33.257088 -30.220384
LeftForeArm 18.274615 -0.000000 6.370430
LeftHand -10.054757 -0.000000 -12.481967
LeftHandThumb1 -26.253704 0.000000 33.147579
RightShoulder -23.852502 -40.534307 -14.256299
RightArm 47.241471 45.031397 45.818966
RightForeArm -2.013604 -0.000000 -0.694381
RightHand -0.552746 -0.000000 14.590212
RightHandThumb1 -24.326973 -0.000000 -32.862282
LeftUpLeg -28.343058 15.761487 1.032324
LeftLeg 11.057720 -0.000000 -0.000000
LeftFoot -8.092545 9.328938 -15.161546
LeftToeBase 7.245127 -0.000000 -0.000000
RightUpLeg -28.679709 -7.346223 -3.723321
RightLeg 9.308909 -0.000000 -0.000000
RightFoot -9.432065 -8.082690 21.170099
RightToeBase 13.966841 -0.000000 -0.000000
994
root 2.497359 36.384568 -0.236290 -515.463196 -83.662271 542.251758
Spine -28.228895 0.722559 -4.640861
Head 8.345135 10.882112 5.878294
LeftShoulder -6.496061 11.849948 30.401611
LeftArm 12.077451 -33.538357 -30.139971
LeftForeArm 18.568487 -0.000000 5.946170
LeftHand -10.085236 -0.000000 -12.540203
LeftHandThumb1 -26.253704 0.000000 33.147579
RightShoulder -23.786943 -40.489084 -14.412864
RightArm 46.988118 44.946272 45.478263
RightForeArm -2.053017 -0.000000 -0.697018
RightHand -0.557098 -0.000000 14.758469
RightHandThumb1 -24.326973 -0.000000 -32.862282
LeftUpLeg -28.252757 15.800715 1.022723
LeftLeg 11.042417 -0.000000 -0.000000
LeftFoot -8.103715 9.333505 -15.128554
LeftToeBase 7.235942 -0.000000 -0.000000
RightUpLeg -28.584662 -7.353676 -3.740715
RightLeg 9.284886 -0.000000 -0.000000
RightFoot -9.451864 -8.047132 21.166550
RightToeBase 13.983654 -0.000000 -0.000000
995
root 2.481281 36.384427 -0.237123 -515.452260 -83.656492 542.224689
Spine -28.238190 0.663937 -4.647316
Head 8.260007 10.925883 5.770051
LeftShoulder -6.467236 11.703339 30.530836
LeftArm 11.938145 -33.772597 -30.042398
LeftForeArm 18.691181 0.000000 5.506498
LeftHand -10.233897 -0.000000 -12.671601
LeftHandThumb1 -26.253704 0.000000 33.147579
RightShoulder -23.729417 -40.451918 -14.574815
RightArm 46.747679 44.795461 45.142214
RightForeArm -1.960125 -0.000000 -0.734789
RightHand -0.531450 0.000000 14.928058
RightHandThumb1 -24.326973 -0.000000 -32.862282
LeftUpLeg -28.212351 15.872917 0.992925
LeftLeg 11.029686 -0.000000 -0.000000
LeftFoot -8.097814 9.281823 -15.099641
LeftToeBase 7.272807 -0.000000 -0.000000
RightUpLeg -28.534739 -7.376967 -3.739646
RightLeg 9.272053 -0.000000 -0.000000
RightFoot -9.461036 -8.010379 21.154375
RightToeBase 13.979980 -0.000000 -0.000000
996
root 2.462685 36.383491 -0.238841 -515.408036 -83.633411 542.125599
Spine -28.201623 0.623023 -4.671625
Head 8.168325 10.981248 5.664062
LeftShoulder -6.452449 11.564678 30.660194
LeftArm 11.825128 -34.022698 -29.995028
LeftForeArm 18.751550 -0.000000 5.073686
LeftHand -10.234059 0.000000 -12.582502
LeftHandThumb1 -26.253704 0.000000 33.147579
RightShoulder -23.653867 -40.426073 -14.755229
RightArm 46.519369 44.654155 44.902231
RightForeArm -1.840349 0.000000 -0.757783
RightHand -0.481280 -0.000000 15.096409
RightHandThumb1 -24.326973 -0.000000 -32.862282
LeftUpLeg -28.119073 15.955914 0.961937
LeftLeg 11.004106 -0.000000 -0.000000
LeftFoot -8.098066 9.242973 -15.072271
LeftToeBase 7.269100 -0.000000 -0.000000
RightUpLeg -28.433162 -7.356591 -3.769096
RightLeg 9.238802 -0.000000 -0.000000
RightFoot -9.488119 -8.009656 21.154963
RightToeBase 14.000607 -0.000000 -0.000000
997
root 2.446281 36.382865 -0.240068 -515.364217 -83.613913 542.055228
Spine -28.192932 0.579149 -4.690410
Head 8.078087 11.034469 5.560724
LeftShoulder -6.443773 11.464144 30.787471
LeftArm 11.745378 -34.252973 -29.970440
LeftForeArm 18.750460 -0.000000 4.632589
LeftHand -10.171897 -0.000000 -12.571624
LeftHandThumb1 -26.253704 0.000000 33.147579
RightShoulder -23.600797 -40.417231 -14.909745
RightArm 46.426085 44.610273 44.809129
RightForeArm -1.837119 0.000000 -0.806606
RightHand -0.467037 -0.000000 15.246736
RightHandThumb1 -24.326973 -0.000000 -32.862282
LeftUpLeg -28.059649 16.047865 0.922717
LeftLeg 10.979338 -0.000000 -0.000000
LeftFoot -8.086448 9.190351 -15.026135
LeftToeBase 7.271220 -0.000000 -0.000000
RightUpLeg -28.378424 -7.367334 -3.776449
RightLeg 9.233022 -0.000000 -0.000000
RightFoot -9.505395 -7.988755 21.140142
RightToeBase 13.940828 -0.000000 -0.000000
998
root 2.430854 36.382920 -0.240513 -515.355379 -83.589476 542.029728
Spine -28.184400 0.525892 -4.695865
Head 7.975433 11.113411 5.461660
LeftShoulder -6.503608 11.421300 30.875374
LeftArm 11.741897 -34.456276 -29.964356
LeftForeArm 18.741404 0.000000 4.249033
LeftHand -10.250112 0.000000 -12.582571
LeftHandThumb1 -26.253704 0.000000 33.147579
RightShoulder -23.531760 -40.383633 -15.047607
RightArm 46.381231 44.631610 44.775132
RightForeArm -1.954716 -0.000000 -0.860404
RightHand -0.445788 -0.000000 15.514799
RightHandThumb1 -24.326973 -0.000000 -32.862282
LeftUpLeg -28.000983 16.125977 0.889940
LeftLeg 10.939324 -0.000000 -0.000000
LeftFoot -8.084040 9.156238 -15.013574
LeftToeBase 7.292401 -0.000000 -0.000000
RightUpLeg -28.333877 -7.340846 -3.798086
RightLeg 9.224806 -0.000000 -0.000000
RightFoot -9.526062 -7.991519 21.147586
RightToeBase 13.962891 -0.000000 -0.000000
999
root 2.414833 36.382545 -0.241962 -515.370852 -83.578291 542.018768
Spine -28.172335 0.483626 -4.700890
Head 7.903272 11.163298 5.360771
LeftShoulder -6.518203 11.364976 30.959629
LeftArm 11.697463 -34.603968 -29.932703
LeftForeArm 18.700641 -0.000000 3.883933
LeftHand -10.206429 -0.000000 -12.694120
LeftHandThumb1 -26.253704 0.000000 33.147579
RightShoulder -23.520257 -40.384136 -15.125607
RightArm 46.493108 44.771442 44.890144
RightForeArm -2.152056 -0.000000 -0.920052
RightHand -0.410389 -0.000000 15.713853
RightHandThumb1 -24.326973 -0.000000 -32.862282
LeftUpLeg -27.934980 16.195046 0.871129
LeftLeg 10.907712 -0.000000 -0.000000
LeftFoot -8.079293 9.107871 -14.984748
LeftToeBase 7.298811 -0.000000 -0.000000
RightUpLeg -28.281754 -7.330279 -3.808410
RightLeg 9.225213 -0.000000 -0.000000
RightFoot -9.543489 -7.982419 21.142452
RightToeBase 13.949550 -0.000000 -0.000000
